<svg xmlns="http://www.w3.org/2000/svg"  
     width="200" height="200" viewBox="0 0 5000 5000" preserveAspectRatio="xMidYMid meet">  
  <g transform="translate(0 500) scale(0.5)" fill="currentColor" stroke="none">  
<path d="M2549 9171 l-29 -29 0 -2464 c0 -1728 3 -2490 11 -2553 23 -186 85
-378 199 -610 353 -719 1033 -1201 1851 -1311 149 -20 451 -23 589 -5 533 67
995 284 1375 643 l94 89 3 -350 3 -351 28 -27 27 -28 1301 -3 c1428 -2 1353
-6 1378 56 8 20 11 673 9 2377 l-3 2350 -22 95 c-92 400 -313 790 -622 1099
-349 349 -815 588 -1301 670 -770 129 -1535 -102 -2087 -632 l-83 -80 0 497 0
498 -29 29 c-21 21 -39 29 -64 29 -37 0 -29 5 -980 -636 l-343 -231 -166 126
c-1055 801 -1028 781 -1070 781 -30 0 -46 -7 -69 -29z m720 -686 c289 -219
536 -403 551 -408 15 -6 37 -7 51 -4 13 3 287 184 609 400 l585 395 5 -532 c4
-404 8 -536 18 -553 17 -31 43 -43 91 -43 36 0 44 5 88 57 202 238 335 360
537 495 521 345 1170 450 1792 288 444 -115 846 -369 1140 -722 198 -236 364
-560 430 -838 17 -71 19 -205 21 -2363 l3 -2287 -1175 0 -1175 0 0 445 0 446
-24 24 c-61 61 -111 42 -203 -73 -147 -187 -369 -383 -574 -508 -792 -484
-1827 -412 -2557 177 -172 140 -351 344 -473 540 -110 177 -220 437 -266 629
-16 71 -18 214 -20 2464 -3 1926 -1 2387 9 2379 7 -6 249 -190 537 -408z"/>
<path d="M2923 6329 c2 -2003 4 -2169 20 -2234 81 -331 263 -658 505 -907 162
-167 318 -280 534 -388 286 -142 580 -210 910 -210 698 0 1342 354 1698 935
64 104 163 317 199 425 60 185 61 203 61 971 l0 699 542 0 541 0 -79 82 c-43
46 -300 307 -570 581 l-491 499 -550 -584 -549 -583 513 -3 c282 -1 513 -6
513 -11 0 -13 -1591 -1622 -1601 -1619 -6 2 -373 372 -816 823 l-806 820 686
3 687 2 0 1431 0 1430 -122 -84 c-378 -259 -895 -601 -908 -601 -8 0 -204 143
-435 319 -231 175 -435 330 -453 343 l-32 25 3 -2164z"/>
<path d="M6770 8439 c-434 -55 -841 -248 -1149 -543 -252 -242 -464 -604 -537
-916 -16 -67 -18 -153 -21 -807 l-4 -733 -552 0 -552 0 525 -526 c289 -289
550 -547 580 -574 l55 -48 558 569 558 569 -513 2 -513 3 799 813 c762 775
800 812 816 795 10 -10 365 -376 791 -813 l774 -795 -668 -3 -667 -2 0 -1113
c0 -613 -3 -1256 -7 -1430 l-6 -317 977 0 976 0 -2 2178 -3 2177 -26 96 c-125
449 -454 884 -854 1129 -249 153 -538 253 -835 290 -98 12 -404 11 -500 -1z"/>
<path d="M5212 2065 c-29 -59 -28 -66 10 -92 37 -26 47 -21 73 37 18 40 18 41
-2 68 -32 43 -55 40 -81 -13z"/>
<path d="M4919 2035 c-12 -19 -24 -35 -28 -35 -4 0 -18 11 -31 25 -12 13 -27
22 -32 19 -4 -3 -20 -28 -34 -57 l-26 -51 26 -23 c36 -31 51 -29 73 7 21 35
24 36 48 10 25 -28 40 -25 66 11 34 49 26 94 -23 120 -15 8 -22 4 -39 -26z"/>
<path d="M3200 1728 c-45 -17 -130 -90 -177 -152 -66 -88 -95 -155 -91 -213 3
-46 5 -49 51 -71 26 -12 47 -28 47 -36 0 -19 -47 -87 -79 -113 -71 -60 -207
-70 -261 -18 -16 15 -32 40 -35 56 -9 38 15 127 65 243 54 127 47 159 -9 41
-60 -125 -88 -201 -101 -274 -26 -142 36 -241 151 -241 66 0 117 20 171 68 79
72 138 211 138 329 0 51 -2 54 -40 78 -22 14 -40 32 -40 41 0 22 85 110 126
129 19 9 43 14 53 10 15 -4 23 6 46 56 29 65 25 83 -15 67z"/>
<path d="M6865 1718 c-58 -30 -165 -143 -202 -213 -67 -128 -64 -182 12 -215
25 -11 45 -26 45 -34 0 -22 -61 -98 -99 -123 -99 -67 -229 -51 -270 33 -19 39
-3 113 55 251 48 114 56 172 12 88 -136 -263 -160 -437 -73 -514 102 -89 278
-23 358 134 28 56 57 167 57 220 0 53 -12 74 -53 88 -9 4 -20 14 -23 22 -16
41 112 159 166 153 21 -3 29 4 47 42 42 86 34 103 -32 68z"/>
<path d="M5201 1618 c-12 -28 -24 -70 -27 -92 -10 -76 -14 -86 -45 -102 -17
-8 -32 -14 -34 -12 -2 2 1 22 8 45 9 34 8 45 -6 67 -11 15 -27 26 -40 26 -38
0 -117 -98 -117 -145 0 -20 -29 -19 -59 2 -23 16 -24 19 -18 110 4 52 3 92 -2
89 -4 -3 -19 -33 -34 -68 -25 -60 -26 -76 -35 -328 -10 -289 -17 -325 -77
-404 -65 -85 -194 -120 -289 -78 -85 38 -96 112 -35 258 35 85 33 107 -4 42
-77 -133 -105 -304 -62 -377 30 -51 67 -74 129 -79 126 -10 233 66 306 220 52
109 70 183 84 347 l11 136 41 1 c36 0 64 11 141 53 10 5 30 12 45 15 40 9 86
52 115 110 20 39 27 70 31 134 2 45 2 82 0 82 -3 0 -15 -23 -27 -52z m-145
-152 c26 -20 8 -50 -35 -54 -42 -4 -54 23 -22 50 28 22 32 22 57 4z"/>
<path d="M5934 1656 c-31 -14 -82 -81 -70 -93 3 -4 16 3 29 15 24 23 81 29
122 13 16 -6 9 -13 -43 -41 -58 -31 -133 -99 -144 -130 -2 -8 -9 -10 -18 -5
-10 6 -11 32 -6 124 3 63 3 111 -2 106 -5 -6 -21 -38 -35 -71 -26 -59 -27 -69
-27 -240 -1 -365 -33 -478 -158 -551 -39 -23 -58 -28 -122 -28 -160 0 -202 83
-131 259 44 109 32 119 -18 16 -118 -243 -72 -420 108 -420 67 0 133 31 191
88 98 99 150 232 172 440 11 106 13 112 34 112 35 0 90 55 108 107 17 51 14
59 -23 65 -52 7 -30 28 84 83 185 90 189 131 15 159 -20 3 -48 -1 -66 -8z"/>
<path d="M3963 1555 c-30 -81 -54 -238 -56 -362 -2 -120 12 -149 82 -172 53
-17 106 -4 154 38 32 29 167 220 167 238 0 5 -26 14 -57 20 -79 15 -98 4 -158
-89 -27 -42 -56 -77 -63 -77 -8 -1 -27 12 -43 28 -35 36 -37 68 -13 261 20
165 17 195 -13 115z m251 -291 c25 -10 19 -29 -18 -62 -34 -30 -102 -59 -113
-48 -7 7 54 103 70 110 18 7 43 7 61 0z"/>
<path d="M5447 1592 c-18 -19 -67 -121 -67 -138 0 -20 29 -37 60 -36 17 0 30
-2 30 -6 0 -20 -53 -76 -107 -113 -81 -55 -98 -73 -57 -63 58 14 132 45 147
62 27 30 66 124 75 184 10 63 -3 110 -33 122 -25 9 -30 8 -48 -12z"/>
<path d="M8953 1543 l-26 -56 29 -24 c16 -12 34 -23 41 -23 15 0 53 62 53 87
0 22 -42 73 -60 73 -6 0 -23 -26 -37 -57z"/>
<path d="M3250 1478 c-26 -61 -37 -139 -43 -306 -4 -104 -2 -121 9 -110 34 33
55 129 60 267 3 75 7 151 9 169 6 48 -10 39 -35 -20z"/>
<path d="M7139 1468 c-19 -43 -24 -79 -30 -193 -4 -77 -10 -162 -14 -190 l-6
-50 19 24 c33 41 53 126 58 244 2 62 6 136 9 165 2 28 0 52 -4 52 -5 0 -19
-24 -32 -52z"/>
<path d="M7570 1469 c-27 -65 -38 -138 -43 -303 -3 -110 -2 -126 9 -111 38 51
55 129 60 264 3 75 7 151 9 169 6 47 -9 39 -35 -19z"/>
<path d="M9127 1402 c-32 -99 -60 -301 -55 -394 5 -86 28 -122 83 -126 34 -3
42 1 84 47 38 41 54 51 79 51 22 0 36 7 48 25 9 13 25 27 36 31 23 7 61 86 55
112 -3 13 -6 11 -15 -10 -8 -19 -19 -28 -34 -28 -15 0 -29 -11 -40 -30 -11
-18 -25 -30 -38 -30 -12 0 -36 -11 -54 -25 -41 -31 -97 -34 -126 -5 -25 25
-27 116 -4 300 8 71 14 138 12 147 -3 10 -16 -19 -31 -65z"/>
<path d="M8582 1408 c-29 -83 -54 -249 -56 -370 -1 -84 2 -100 20 -125 24 -32
75 -43 101 -21 23 19 53 88 53 125 0 69 -31 86 -50 28 -13 -41 -22 -43 -50
-13 -25 27 -26 86 -1 291 10 81 15 147 11 147 -3 0 -16 -28 -28 -62z"/>
<path d="M3717 1345 c-15 -31 -27 -60 -27 -66 0 -5 18 -27 40 -48 22 -21 40
-47 40 -59 0 -13 -29 -47 -77 -91 -42 -39 -72 -71 -66 -71 21 0 95 30 123 50
16 11 42 48 59 82 49 98 40 186 -25 237 -15 12 -30 21 -33 21 -4 0 -19 -25
-34 -55z"/>
<path d="M3470 1285 c-17 -37 -30 -75 -30 -85 0 -10 -9 -37 -20 -61 -25 -55
-25 -91 -2 -112 26 -23 45 -21 81 8 45 38 83 123 83 187 1 61 -12 88 -54 112
l-28 17 -30 -66z m28 -121 c29 -20 28 -52 -2 -66 -48 -21 -73 15 -44 62 15 24
17 24 46 4z"/>
<path d="M8443 1283 c-23 -40 -43 -137 -43 -210 0 -120 -43 -193 -143 -243
-106 -53 -244 -35 -276 37 -23 49 -11 135 33 236 24 54 1 46 -28 -11 -67 -133
-86 -297 -40 -359 35 -46 70 -66 128 -71 216 -18 398 251 384 568 -3 66 -5 72
-15 53z"/>
<path d="M8927 1135 c-53 -111 -76 -139 -159 -196 -31 -21 -60 -44 -64 -51
-11 -17 78 -3 132 22 40 17 49 27 79 92 40 88 68 180 63 210 -3 17 -16 -3 -51
-77z"/>
<path d="M6900 1209 c0 -6 -20 -53 -45 -105 -44 -90 -48 -96 -125 -150 -44
-30 -82 -60 -85 -65 -16 -25 135 10 169 39 25 23 48 72 80 166 27 82 33 126
16 126 -5 0 -10 -5 -10 -11z"/>
<path d="M7778 1113 c-52 -105 -55 -109 -128 -159 -41 -28 -76 -56 -78 -63 -9
-26 122 4 162 38 25 21 71 122 96 213 23 85 22 78 11 78 -5 0 -33 -48 -63
-107z"/>
<path d="M7303 1138 c-11 -18 -28 -50 -39 -71 -31 -62 -69 -102 -143 -151 -81
-53 -98 -72 -55 -62 103 24 134 38 158 68 23 30 25 31 32 13 30 -85 129 -68
170 30 20 49 18 98 -5 119 -19 17 -20 16 -41 -24 -21 -40 -22 -41 -41 -24 -21
19 -25 67 -9 108 14 37 -5 32 -27 -6z"/>
<path d="M8159 1098 l-31 -62 33 -28 c19 -15 37 -28 40 -28 16 0 51 52 56 84
5 31 2 41 -22 67 -16 16 -32 29 -37 29 -4 0 -22 -28 -39 -62z"/>
<path d="M6042 1118 c-24 -26 -61 -105 -62 -130 0 -25 39 -49 69 -41 l25 6
-20 -34 c-11 -19 -55 -60 -98 -92 -43 -33 -76 -61 -73 -63 2 -2 35 5 72 17 45
14 78 31 96 50 37 40 71 131 76 204 4 51 2 63 -17 83 -11 12 -27 22 -34 22 -7
0 -22 -10 -34 -22z"/>
<path d="M7364 695 c-52 -80 -79 -200 -50 -224 38 -32 73 35 37 73 -27 29 -27
39 9 114 30 64 32 80 4 37z"/>
<path d="M4032 594 l-27 -56 30 -24 c17 -13 36 -24 42 -24 13 0 53 70 53 93 0
17 -45 67 -60 67 -5 0 -23 -25 -38 -56z"/>
  </g>  
</svg>